<svg data-v-0dd9719b="" version="1.0" xmlns="http://www.w3.org/2000/svg" xmlns:xlink="http://www.w3.org/1999/xlink" width="100%" height="100%" viewBox="0 0 340.000000 250.000000" preserveAspectRatio="xMidYMid meet" color-interpolation-filters="sRGB" style="margin: auto;"> <rect data-v-0dd9719b="" x="0" y="0" width="100%" height="100%" fill="#fff" fill-opacity="1" class="background"></rect> <rect data-v-0dd9719b="" x="0" y="0" width="100%" height="100%" fill="url(#watermark)" fill-opacity="1" class="watermarklayer"></rect> <g data-v-0dd9719b="" fill="#2b88e4" class="icon-text-wrapper icon-svg-group iconsvg" transform="translate(51,95.14004325866699)"><g class="iconsvg-imagesvg" transform="translate(0,0)"><g><rect fill="#2b88e4" fill-opacity="0" stroke-width="2" x="0" y="0" width="60" height="59.71991360519165" class="image-rect"></rect> <svg x="0" y="0" width="60" height="59.71991360519165" filtersec="colorsb7264018221" class="image-svg-svg primary" style="overflow: visible;"><svg xmlns="http://www.w3.org/2000/svg" viewBox="0.010001420974731445 0.004048407077789307 169.76133728027344 168.96824645996094"><title>资源 94</title><g><g><path d="M42.2 147.65q-19.77-9.71-39.55-19.4c-2-1-2.64-2.36-2.64-4.56q.11-39.4 0-78.8c0-2.52 1-3.72 3.12-4.77Q42.39 20.59 81.57.93c2-1 3.79-1.34 5.93-.26Q128.06 21 168.68 41.32c.27.13.41.53.61.8-7 3.53-13.93 7.18-21 10.55-7.36 3.52-14.27 8-22.11 10.46C113 56.41 99.85 49.72 86.71 43a3.84 3.84 0 0 0-3.9.07Q63.06 53.1 43.26 63.12c-1.56 1.62-.9 3.65-.91 5.5-.05 12.42 0 24.85 0 37.27q-.08 20.88-.15 41.76z" fill="#2b88e4"></path><path d="M85.17 126.63q30.64-15.47 61.3-30.91c7.64-3.85 15.33-7.6 23-11.4 0 13.27 0 26.53.09 39.8a4 4 0 0 1-2.56 4q-40.29 20-80.56 40.11a3.35 3.35 0 0 1-1 .16q-.14-20.86-.27-41.76z" fill="#3fe383"></path><path d="M85.17 126.63q.12 20.91.25 41.81a1.35 1.35 0 0 1-1.86.28L42.2 147.65q.07-20.88.13-41.76c8.64 2.91 16.33 7.82 24.52 11.67 6.15 2.9 12.22 6.04 18.32 9.07z" fill="#8ffd05"></path><path d="M169.29 42.12c-7 3.53-13.93 7.18-21 10.55-7.36 3.52-14.27 8-22.11 10.46l-19.79 10q-9.89 5-19.75 10.08a3.78 3.78 0 0 1-3.88-.1Q63 73.08 43.26 63.12c-1.56 1.62-.9 3.65-.91 5.5-.05 12.42 0 24.85 0 37.27 8.64 2.91 16.33 7.82 24.52 11.67 6.16 2.9 12.22 6 18.32 9.07q30.64-15.47 61.3-30.91c7.64-3.85 15.33-7.6 23-11.4.22-14.07.59-28.14-.2-42.2z" fill="#01affd"></path></g></g></svg></svg> <!----></g></g> <g transform="translate(67,2.0737037658691406)"><g data-gra="path-name" fill-rule="" class="tp-name iconsvg-namesvg" transform="translate(0,0)"><g transform="scale(1)"><g><path d="M40.5-0.04L34.67-0.04Q32.44-0.04 30.85-1.62 29.27-3.21 29.27-5.44L29.27-5.44 29.27-21.21 33.73-21.21 33.73-3.64 40.5-3.64 40.5-0.04ZM40.5-36.94L40.5-33.34 40.5-29.74 36-29.74 36-33.34 28.88-33.34 28.88-23.87 17.73 0.08 12.8 0.08 24.38-24.77 24.38-33.34 17.3-33.34 17.3-29.74 12.8-29.74 12.8-33.34 12.8-36.94 24.38-36.94 24.38-40.54 28.88-40.54 28.88-36.94 40.5-36.94ZM6.03-14.28L10.53-14.28 10.53-5.17Q10.53-2.27 9.08 0L9.08 0 4.5 0Q6.03-2.31 6.03-5.17L6.03-5.17 6.03-14.28ZM10.53-35.3L10.53-29.62 6.03-29.62 6.03-35.3Q6.03-38.15 4.5-40.46L4.5-40.46 9.08-40.46Q10.53-38.19 10.53-35.3L10.53-35.3ZM10.53-22.23L10.53-16.55 6.03-16.55 6.03-22.23Q6.03-25.04 4.5-27.39L4.5-27.39 9.08-27.39Q10.53-25.12 10.53-22.23L10.53-22.23ZM81.04-5.87L81-5.87 81-34.67 69.57-34.67 69.57-22.11 80.92-22.11 78.85-18.51 69.61-18.51 69.61-5.87 81.04-5.87ZM49.5 0L49.5-40.5 50.87-40.5 54-40.5 63.7-40.5 63.7-36.9 62.1-26.1 63.7-26.1 63.7-7.43Q63.7-4.54 62.3-2.27L62.3-2.27 57.68-2.27Q59.2-4.58 59.2-7.43L59.2-7.43 59.2-26.1 57.6-26.1 59.17-36.9 54-36.9 54 0 49.5 0ZM69.57-38.27L81-38.27 81-38.31 85.5-38.31 85.5-38.27 85.5-34.67 85.5-5.87 85.5-2.35 85.5-2.27 70.47-2.27Q68.24-2.27 66.66-3.85 65.07-5.44 65.07-7.67L65.07-7.67 65.07-18.51 65.07-22.11 65.07-34.67 65.07-38.27 69.57-38.27ZM105.69-20.7L105.69-24.3 121.58-24.3 124.9-24.3 122.87-28.84 127.6-28.84 130.5-22.34 127.13-22.34 130.5-14.83 125.8-14.83 123.18-20.7 105.69-20.7ZM94.5-29.7L94.5-33.26 94.5-36.86 110.93-36.86 108.86-40.46 114.07-40.46 116.14-36.86 130.5-36.86 130.5-33.26 130.5-29.7 126-29.7 126-33.26 99-33.26 99-29.7 94.5-29.7ZM130.5-9.9L130.5-9.86 130.5-3.56 130.5 0 99.9 0Q97.67 0 96.08-1.58 94.5-3.17 94.5-5.4L94.5-5.4 94.5-9.9 94.5-11.7 94.5-13.5 130.5-13.5 130.5-11.7 130.5-9.9ZM99-3.56L126-3.56 126-9.86 99-9.86 99-3.56ZM97.4-28.84L102.09-28.84 100.1-24.26 103.42-24.26 99.2-14.83 94.5-14.83 97.83-22.34 94.5-22.34 97.4-28.84ZM173.27-22.5L159.77-22.5 159.77-16.67 175.5-16.67 175.5-13.07 159.77-13.07 159.77-5.17Q159.77-2.31 158.32 0L158.32 0 153.74 0Q155.27-2.27 155.27-5.17L155.27-5.17 155.27-13.07 139.5-13.07 139.5-16.67 155.27-16.67 155.27-22.5 141.77-22.5 141.77-26.1 173.27-26.1 173.27-22.5ZM139.5-29.7L139.5-33.3 139.5-36.9 155.93-36.9 153.86-40.5 159.07-40.5 161.14-36.9 175.5-36.9 175.5-33.3 175.5-29.7 171-29.7 171-33.3 144-33.3 144-29.7 139.5-29.7Z" transform="translate(-4.5, 40.540000915527344)"></path></g> <!----> <!----> <!----> <!----> <!----> <!----> <!----></g></g> <g data-gra="path-slogan" fill-rule="" class="tp-slogan iconsvg-slogansvg" fill="#2b88e4" transform="translate(5,46.62000274658203)"><rect x="0" height="1" y="3.9750003814697266" width="16.769176483154297"></rect> <rect height="1" y="3.9750003814697266" width="16.769176483154297" x="144.2308235168457"></rect> <g transform="translate(19.769176483154297,0)"><g transform="scale(1)"><path d="M7.17-6.09L7.17-6.09L6.09-6.09Q6-7.73 3.94-7.83L3.94-7.83Q2.02-7.78 2.02-6.33L2.02-6.33Q2.02-5.39 3.05-5.25L3.05-5.25L5.48-4.69Q7.41-4.22 7.41-2.34L7.41-2.34Q7.36 0.05 4.03 0.14L4.03 0.14Q2.20 0.14 1.45-0.61L1.45-0.61Q0.52-1.31 0.56-2.77L0.56-2.77L1.69-2.77Q1.73-0.80 4.03-0.75L4.03-0.75Q6.28-0.80 6.33-2.20L6.33-2.20Q6.52-3.38 4.45-3.75L4.45-3.75L2.67-4.13Q0.84-4.64 0.84-6.19L0.84-6.19Q0.98-8.72 3.84-8.81L3.84-8.81Q7.08-8.81 7.17-6.09ZM10.03-5.06L14.53-5.06L14.53-8.58L15.70-8.58L15.70 0L14.53 0L14.53-3.98L10.03-3.98L10.03 0L8.86 0L8.86-8.58L10.03-8.58L10.03-5.06ZM18.80-1.03L23.95-1.03L23.95 0L17.63 0L17.63-8.58L23.86-8.58L23.86-7.59L18.80-7.59L18.80-4.92L23.48-4.92L23.48-3.89L18.80-3.89L18.80-1.03ZM26.86-8.58L31.17-1.64L31.17-8.58L32.30-8.58L32.30 0L30.98 0L26.63-6.94L26.58-6.94L26.58 0L25.45 0L25.45-8.58L26.86-8.58ZM41.02-8.58L37.78-3.47L37.78 0L36.61 0L36.61-3.47L33.38-8.58L34.73-8.58L37.17-4.45L39.66-8.58L41.02-8.58ZM47.72 0L46.88-2.48L43.41-2.48L42.52 0L41.34 0L44.58-8.58L45.89-8.58L48.98 0L47.72 0ZM45.14-7.31L43.78-3.52L46.45-3.52L45.19-7.31L45.14-7.31ZM51.42-8.58L55.73-1.64L55.73-8.58L56.86-8.58L56.86 0L55.55 0L51.19-6.94L51.14-6.94L51.14 0L50.02 0L50.02-8.58L51.42-8.58ZM65.06-3.61L62.44-3.61L62.44-4.59L66.19-4.59L66.19 0L65.44 0L65.16-1.08Q64.17 0.09 62.34 0.14L62.34 0.14Q60.61 0.14 59.67-0.75L59.67-0.75Q58.27-2.06 58.31-4.36L58.31-4.36Q58.64-8.63 62.39-8.81L62.39-8.81Q65.58-8.63 66.05-6L66.05-6L64.92-6Q64.45-7.78 62.34-7.83L62.34-7.83Q59.67-7.64 59.53-4.31L59.53-4.31Q59.53-0.75 62.39-0.75L62.39-0.75Q63.42-0.75 64.17-1.31L64.17-1.31Q65.11-2.06 65.06-3.61L65.06-3.61ZM75.42-3.70L72.61-3.70L72.61 0L71.44 0L71.44-8.58L75.42-8.58Q78.28-8.58 78.28-6.28L78.28-6.28Q78.28-4.88 77.06-4.22L77.06-4.22Q78.09-3.94 78.09-2.58L78.09-2.58L78.19-1.03Q78.14-0.38 78.61-0.19L78.61-0.19L78.61 0L77.16 0Q77.02-0.61 76.97-2.16L76.97-2.16Q77.02-3.70 75.42-3.70L75.42-3.70ZM75.52-7.64L72.61-7.64L72.61-4.69L75.33-4.69Q77.06-4.69 77.06-6.19L77.06-6.19Q77.06-7.64 75.52-7.64L75.52-7.64ZM86.72-4.27L86.72-4.27Q86.53-7.64 83.72-7.83L83.72-7.83Q80.86-7.69 80.72-4.27L80.72-4.27Q80.86-0.94 83.72-0.80L83.72-0.80Q86.53-0.98 86.72-4.27ZM87.89-4.27L87.89-4.27Q87.61 0 83.72 0.14L83.72 0.14Q79.78 0 79.50-4.27L79.50-4.27Q79.73-8.72 83.72-8.81L83.72-8.81Q87.61-8.67 87.89-4.27ZM90.66-8.58L94.97-1.64L94.97-8.58L96.09-8.58L96.09 0L94.78 0L90.42-6.94L90.38-6.94L90.38 0L89.25 0L89.25-8.58L90.66-8.58ZM104.30-3.61L101.67-3.61L101.67-4.59L105.42-4.59L105.42 0L104.67 0L104.39-1.08Q103.41 0.09 101.58 0.14L101.58 0.14Q99.84 0.14 98.91-0.75L98.91-0.75Q97.50-2.06 97.55-4.36L97.55-4.36Q97.88-8.63 101.63-8.81L101.63-8.81Q104.81-8.63 105.28-6L105.28-6L104.16-6Q103.69-7.78 101.58-7.83L101.58-7.83Q98.91-7.64 98.77-4.31L98.77-4.31Q98.77-0.75 101.63-0.75L101.63-0.75Q102.66-0.75 103.41-1.31L103.41-1.31Q104.34-2.06 104.30-3.61L104.30-3.61ZM114.14-8.58L110.91-3.47L110.91 0L109.73 0L109.73-3.47L106.50-8.58L107.86-8.58L110.30-4.45L112.78-8.58L114.14-8.58ZM120.84-3.19L120.84-8.58L122.02-8.58L122.02-3.05Q121.88 0.05 118.50 0.14L118.50 0.14Q115.36 0.05 115.22-2.86L115.22-2.86L115.22-8.58L116.39-8.58L116.39-3.19Q116.44-0.84 118.55-0.80L118.55-0.80Q120.84-0.84 120.84-3.19L120.84-3.19Z" transform="translate(-0.5602678571428572, 8.8125)"></path></g></g></g></g></g><defs v-gra="od"></defs></svg>